<svg width="16" height="12" viewBox="0 0 16 12" fill="none" xmlns="http://www.w3.org/2000/svg">
<path opacity="0.4" d="M2.4 5.5334C3.2825 5.5334 4 4.8159 4 3.9334C4 3.0509 3.2825 2.3334 2.4 2.3334C1.5175 2.3334 0.8 3.0509 0.8 3.9334C0.8 4.8159 1.5175 5.5334 2.4 5.5334ZM13.6 5.5334C14.4825 5.5334 15.2 4.8159 15.2 3.9334C15.2 3.0509 14.4825 2.3334 13.6 2.3334C12.7175 2.3334 12 3.0509 12 3.9334C12 4.8159 12.7175 5.5334 13.6 5.5334ZM14.4 6.3334H12.8C12.36 6.3334 11.9625 6.5109 11.6725 6.7984C12.68 7.3509 13.395 8.3484 13.55 9.5334H15.2C15.6425 9.5334 16 9.1759 16 8.7334V7.9334C16 7.0509 15.2825 6.3334 14.4 6.3334ZM8 6.3334C9.5475 6.3334 10.8 5.0809 10.8 3.5334C10.8 1.9859 9.5475 0.733398 8 0.733398C6.4525 0.733398 5.2 1.9859 5.2 3.5334C5.2 5.0809 6.4525 6.3334 8 6.3334ZM9.92 7.1334H9.7125C9.1925 7.3834 8.615 7.5334 8 7.5334C7.385 7.5334 6.81 7.3834 6.2875 7.1334H6.08C4.49 7.1334 3.2 8.4234 3.2 10.0134V10.7334C3.2 11.3959 3.7375 11.9334 4.4 11.9334H11.6C12.2625 11.9334 12.8 11.3959 12.8 10.7334V10.0134C12.8 8.4234 11.51 7.1334 9.92 7.1334ZM4.3275 6.7984C4.0375 6.5109 3.64 6.3334 3.2 6.3334H1.6C0.7175 6.3334 0 7.0509 0 7.9334V8.7334C0 9.1759 0.3575 9.5334 0.8 9.5334H2.4475C2.605 8.3484 3.32 7.3509 4.3275 6.7984Z" fill="#DDE2FF"/>
</svg>
