<svg width="12" height="17" viewBox="0 0 12 17" fill="none" xmlns="http://www.w3.org/2000/svg">
<path opacity="0.4" d="M3.50187 14.5318C3.50219 14.7284 3.56031 14.9209 3.66937 15.0847L4.20344 15.8875C4.29467 16.0247 4.41841 16.1373 4.56366 16.2151C4.7089 16.293 4.87114 16.3337 5.03594 16.3337H6.96438C7.12917 16.3337 7.29141 16.293 7.43665 16.2151C7.5819 16.1373 7.70564 16.0247 7.79688 15.8875L8.33094 15.0847C8.43995 14.9209 8.49822 14.7286 8.49844 14.5318L8.49969 13.3334H3.50031L3.50187 14.5318ZM0.5 5.8334C0.5 7.21996 1.01406 8.48496 1.86125 9.45153C2.3775 10.0406 3.185 11.2712 3.49281 12.3093C3.49406 12.3175 3.495 12.3256 3.49625 12.3337H8.50375C8.505 12.3256 8.50594 12.3178 8.50719 12.3093C8.815 11.2712 9.6225 10.0406 10.1388 9.45153C10.9859 8.48496 11.5 7.21996 11.5 5.8334C11.5 2.78996 9.02844 0.324026 5.98281 0.333401C2.795 0.343088 0.5 2.92621 0.5 5.8334ZM6 3.3334C4.62156 3.3334 3.5 4.45496 3.5 5.8334C3.5 6.10965 3.27625 6.3334 3 6.3334C2.72375 6.3334 2.5 6.10965 2.5 5.8334C2.5 3.9034 4.07 2.3334 6 2.3334C6.27625 2.3334 6.5 2.55715 6.5 2.8334C6.5 3.10965 6.27625 3.3334 6 3.3334Z" fill="#DDE2FF"/>
</svg>
