<svg width="16" height="16" viewBox="0 0 16 16" fill="none" xmlns="http://www.w3.org/2000/svg">
<path opacity="0.4" d="M15.5232 8.94109H8.54412L13.192 13.589C13.3697 13.7666 13.662 13.781 13.8447 13.609C14.9829 12.5366 15.7658 11.0911 15.9955 9.46609C16.0349 9.18786 15.8041 8.94109 15.5232 8.94109ZM15.0576 7.03523C14.8152 3.52173 12.0076 0.714114 8.49412 0.471763C8.22588 0.453234 8 0.679408 8 0.948229V7.52934H14.5814C14.8502 7.52934 15.0761 7.30346 15.0576 7.03523ZM6.58825 8.94109V1.96204C6.58825 1.68116 6.34149 1.45028 6.06355 1.48969C2.55857 1.98498 -0.120523 5.04701 0.0041819 8.71668C0.132416 12.4855 3.37739 15.576 7.14795 15.5287C8.63029 15.5101 9.99999 15.0325 11.1262 14.2337C11.3585 14.069 11.3738 13.7269 11.1723 13.5255L6.58825 8.94109Z" fill="#9FA2B4"/>
</svg>
