<svg width="16" height="16" viewBox="0 0 16 16" fill="none" xmlns="http://www.w3.org/2000/svg">
<g clip-path="url(#clip0_14_1601)">
<path opacity="0.4" d="M15.2312 9.86546L13.9 9.09671C14.0344 8.37171 14.0344 7.62796 13.9 6.90296L15.2312 6.13421C15.3844 6.04671 15.4531 5.86546 15.4031 5.69671C15.0562 4.58421 14.4656 3.57796 13.6937 2.74046C13.575 2.61233 13.3812 2.58108 13.2312 2.66858L11.9 3.43733C11.3406 2.95608 10.6969 2.58421 10 2.34046V0.806084C10 0.631084 9.87813 0.477959 9.70625 0.440459C8.55938 0.184209 7.38438 0.196709 6.29375 0.440459C6.12188 0.477959 6 0.631084 6 0.806084V2.34358C5.30625 2.59046 4.6625 2.96233 4.1 3.44046L2.77188 2.67171C2.61875 2.58421 2.42813 2.61233 2.30938 2.74358C1.5375 3.57796 0.94688 4.58421 0.600005 5.69983C0.54688 5.86858 0.618755 6.04983 0.77188 6.13733L2.10313 6.90608C1.96875 7.63108 1.96875 8.37483 2.10313 9.09983L0.77188 9.86858C0.618755 9.95608 0.550005 10.1373 0.600005 10.3061C0.94688 11.4186 1.5375 12.4248 2.30938 13.2623C2.42813 13.3905 2.62188 13.4217 2.77188 13.3342L4.10313 12.5655C4.6625 13.0467 5.30625 13.4186 6.00313 13.6623V15.1998C6.00313 15.3748 6.125 15.528 6.29688 15.5655C7.44375 15.8217 8.61875 15.8092 9.70938 15.5655C9.88125 15.528 10.0031 15.3748 10.0031 15.1998V13.6623C10.6969 13.4155 11.3406 13.0436 11.9031 12.5655L13.2344 13.3342C13.3875 13.4217 13.5781 13.3936 13.6969 13.2623C14.4687 12.428 15.0594 11.4217 15.4062 10.3061C15.4531 10.1342 15.3844 9.95296 15.2312 9.86546ZM8 10.4998C6.62188 10.4998 5.5 9.37796 5.5 7.99983C5.5 6.62171 6.62188 5.49983 8 5.49983C9.37813 5.49983 10.5 6.62171 10.5 7.99983C10.5 9.37796 9.37813 10.4998 8 10.4998Z" fill="#9FA2B4"/>
</g>
<defs>
<clipPath id="clip0_14_1601">
<rect width="16" height="16" fill="white"/>
</clipPath>
</defs>
</svg>
