<svg width="16" height="17" viewBox="0 0 16 17" fill="none" xmlns="http://www.w3.org/2000/svg">
<path fill-rule="evenodd" clip-rule="evenodd" d="M3.8929 12.2775C3.6089 11.9185 3.2639 11.1845 2.6499 10.2935C2.3019 9.78953 1.4389 8.84053 1.1819 8.35853C0.958897 7.93253 0.982897 7.74153 1.0359 7.38853C1.1299 6.76053 1.7739 6.27153 2.4609 6.33753C2.9799 6.38653 3.4199 6.72953 3.8159 7.05353C4.0549 7.24853 4.3489 7.62753 4.5259 7.84153C4.6889 8.03753 4.7289 8.11853 4.9029 8.35053C5.1329 8.65753 5.2049 8.80953 5.1169 8.47153C5.0459 7.97553 4.9299 7.12853 4.7619 6.37953C4.6339 5.81153 4.6029 5.72253 4.4809 5.28653C4.3519 4.82253 4.2859 4.49753 4.1649 4.00553C4.0809 3.65753 3.9299 2.94653 3.8889 2.54653C3.8319 1.99953 3.8019 1.10753 4.1529 0.697532C4.4279 0.376532 5.0589 0.279532 5.4499 0.477532C5.9619 0.736532 6.2529 1.48053 6.3859 1.77753C6.6249 2.31153 6.7729 2.92853 6.9019 3.73853C7.0659 4.76953 7.3679 6.20053 7.3779 6.50153C7.4019 6.13253 7.3099 5.35553 7.3739 5.00153C7.4319 4.68053 7.7019 4.30753 8.0399 4.20653C8.3259 4.12153 8.6609 4.09053 8.9559 4.15153C9.2689 4.21553 9.5989 4.43953 9.7219 4.65053C10.0839 5.27453 10.0909 6.54953 10.1059 6.48153C10.1919 6.10553 10.1769 5.25253 10.3899 4.89753C10.5299 4.66353 10.8869 4.45253 11.0769 4.41853C11.3709 4.36653 11.7319 4.35053 12.0409 4.41053C12.2899 4.45953 12.6269 4.75553 12.7179 4.89753C12.9359 5.24153 13.0599 6.21453 13.0969 6.55553C13.1119 6.69653 13.1709 6.16353 13.3899 5.81953C13.7959 5.18053 15.2329 5.05653 15.2879 6.45853C15.3129 7.11253 15.3079 7.08253 15.3079 7.52253C15.3079 8.03953 15.2959 8.35053 15.2679 8.72453C15.2369 9.12453 15.1509 10.0285 15.0259 10.4665C14.9399 10.7675 14.6549 11.4445 14.3739 11.8505C14.3739 11.8505 13.2999 13.1005 13.1829 13.6635C13.0649 14.2255 13.1039 14.2295 13.0809 14.6285C13.0579 15.0265 13.2019 15.5505 13.2019 15.5505C13.2019 15.5505 12.3999 15.6545 11.9679 15.5855C11.5769 15.5225 11.0929 14.7445 10.9679 14.5065C10.7959 14.1785 10.4289 14.2415 10.2859 14.4835C10.0609 14.8665 9.5769 15.5535 9.2349 15.5965C8.5669 15.6805 7.1809 15.6275 6.0959 15.6165C6.0959 15.6165 6.2809 14.6055 5.8689 14.2585C5.5639 13.9995 5.0389 13.4745 4.7249 13.1985L3.8929 12.2775Z" fill="white"/>
<path fill-rule="evenodd" clip-rule="evenodd" d="M3.8929 12.2775C3.6089 11.9185 3.2639 11.1845 2.6499 10.2935C2.3019 9.78953 1.4389 8.84053 1.1819 8.35853C0.958897 7.93253 0.982897 7.74153 1.0359 7.38853C1.1299 6.76053 1.7739 6.27153 2.4609 6.33753C2.9799 6.38653 3.4199 6.72953 3.8159 7.05353C4.0549 7.24853 4.3489 7.62753 4.5259 7.84153C4.6889 8.03753 4.7289 8.11853 4.9029 8.35053C5.1329 8.65753 5.2049 8.80953 5.1169 8.47153C5.0459 7.97553 4.9299 7.12853 4.7619 6.37953C4.6339 5.81153 4.6029 5.72253 4.4809 5.28653C4.3519 4.82253 4.2859 4.49753 4.1649 4.00553C4.0809 3.65753 3.9299 2.94653 3.8889 2.54653C3.8319 1.99953 3.8019 1.10753 4.1529 0.697532C4.4279 0.376532 5.0589 0.279532 5.4499 0.477532C5.9619 0.736532 6.2529 1.48053 6.3859 1.77753C6.6249 2.31153 6.7729 2.92853 6.9019 3.73853C7.0659 4.76953 7.3679 6.20053 7.3779 6.50153C7.4019 6.13253 7.3099 5.35553 7.3739 5.00153C7.4319 4.68053 7.7019 4.30753 8.0399 4.20653C8.3259 4.12153 8.6609 4.09053 8.9559 4.15153C9.2689 4.21553 9.5989 4.43953 9.7219 4.65053C10.0839 5.27453 10.0909 6.54953 10.1059 6.48153C10.1919 6.10553 10.1769 5.25253 10.3899 4.89753C10.5299 4.66353 10.8869 4.45253 11.0769 4.41853C11.3709 4.36653 11.7319 4.35053 12.0409 4.41053C12.2899 4.45953 12.6269 4.75553 12.7179 4.89753C12.9359 5.24153 13.0599 6.21453 13.0969 6.55553C13.1119 6.69653 13.1709 6.16353 13.3899 5.81953C13.7959 5.18053 15.2329 5.05653 15.2879 6.45853C15.3129 7.11253 15.3079 7.08253 15.3079 7.52253C15.3079 8.03953 15.2959 8.35053 15.2679 8.72453C15.2369 9.12453 15.1509 10.0285 15.0259 10.4665C14.9399 10.7675 14.6549 11.4445 14.3739 11.8505C14.3739 11.8505 13.2999 13.1005 13.1829 13.6635C13.0649 14.2255 13.1039 14.2295 13.0809 14.6285C13.0579 15.0265 13.2019 15.5505 13.2019 15.5505C13.2019 15.5505 12.3999 15.6545 11.9679 15.5855C11.5769 15.5225 11.0929 14.7445 10.9679 14.5065C10.7959 14.1785 10.4289 14.2415 10.2859 14.4835C10.0609 14.8665 9.5769 15.5535 9.2349 15.5965C8.5669 15.6805 7.1809 15.6275 6.0959 15.6165C6.0959 15.6165 6.2809 14.6055 5.8689 14.2585C5.5639 13.9995 5.0389 13.4745 4.7249 13.1985L3.8929 12.2775V12.2775Z" stroke="black" stroke-width="0.75" stroke-linecap="round" stroke-linejoin="round"/>
<path d="M12.1278 12.6321V9.1731" stroke="black" stroke-width="0.75" stroke-linecap="round"/>
<path d="M10.1122 12.6438L10.0962 9.17078" stroke="black" stroke-width="0.75" stroke-linecap="round"/>
<path d="M8.11609 9.20227L8.13709 12.6283" stroke="black" stroke-width="0.75" stroke-linecap="round"/>
</svg>
